<?xml version="1.0" encoding="iso-8859-1"?>
<!-- Generator: Adobe Illustrator 21.1.0, SVG Export Plug-In . SVG Version: 6.00 Build 0)  -->
<svg version="1.1" id="Layer_1" xmlns="http://www.w3.org/2000/svg" xmlns:xlink="http://www.w3.org/1999/xlink" x="0px" y="0px"
	 viewBox="0 0 100.353 100.353" style="enable-background:new 0 0 100.353 100.353;" xml:space="preserve">
<path d="M49.138,10.645c-0.256-0.007-1.32,0.002-1.381,0.004C26.786,11.064,9.829,28.113,9.567,49.121
	c-0.114,0.211-0.184,0.449-0.184,0.706c0,0.266,0.075,0.511,0.196,0.727c0.498,20.8,17.359,37.607,38.179,38.018
	c0.152,0.005,0.303,0.02,0.456,0.02c0.04,0,0.079-0.005,0.119-0.005c0.068,0,0.135,0.005,0.203,0.005
	c21.494,0,38.98-17.486,38.98-38.981C87.517,28.319,70.355,10.97,49.138,10.645z M84.484,48.327H70.215
	c-0.256-14.633-4.856-26.991-11.654-33.265C73.142,19.3,83.926,32.53,84.484,48.327z M47.036,13.706v34.621H29.213
	C29.558,29.823,37.32,14.835,47.036,13.706z M47.036,51.326v34.19c-9.64-1.121-17.361-15.884-17.817-34.19H47.036z M50.036,85.423
	V51.326h17.173C66.763,69.223,59.375,83.736,50.036,85.423z M50.036,48.327V13.799c9.413,1.701,16.841,16.435,17.179,34.528H50.036z
	 M37.555,15.35c-6.627,6.361-11.09,18.568-11.342,32.977H12.587C13.133,32.877,23.46,19.878,37.555,15.35z M12.598,51.326H26.22
	c0.332,14.222,4.775,26.249,11.336,32.546C23.59,79.386,13.318,66.588,12.598,51.326z M58.561,84.16
	c6.731-6.213,11.311-18.388,11.648-32.834h14.264C83.737,66.933,73.01,79.961,58.561,84.16z"/>
</svg>
